<svg xmlns="http://www.w3.org/2000/svg" xmlns:xlink="http://www.w3.org/1999/xlink" viewBox="0 0 621.1 185.46"><defs><style>.cls-1{fill:#0051a2;}.cls-2{stroke:#000;stroke-width:5px;}.cls-2,.cls-5{stroke-miterlimit:10;}.cls-3{fill:#fff;}.cls-4{fill:url(#Degradado_sin_nombre_19);}.cls-5{fill:none;stroke:#fff;}</style><linearGradient id="Degradado_sin_nombre_19" x1="-584.44" y1="35.38" x2="-584.44" y2="122.19" gradientTransform="translate(1131.2)" gradientUnits="userSpaceOnUse"><stop offset="0" stop-color="#fff"/><stop offset="0.5" stop-color="#fff"/><stop offset="1" stop-color="gray"/></linearGradient></defs><g id="Capa_2" data-name="Capa 2"><g id="Capa_1-2" data-name="Capa 1"><circle class="cls-1" cx="541.05" cy="80.05" r="80.05"/><path d="M0,90.59H11V92q0,13.53,3.52,17.29T29.13,113H37q11.1,0,14.63-3.73T55.19,92V34.21h11V94.85q0,14.64-6.49,20.93T38,122.08H28.2q-15.76,0-22-6.5T0,92.34Z"/><path d="M86.91,44.69h9.71V94.78c0,4.92.3,8.36.91,10.3a9.46,9.46,0,0,0,3.13,4.72,13.89,13.89,0,0,0,5.58,2.59,57.08,57.08,0,0,0,11.2.74h9.12a58.1,58.1,0,0,0,11.29-.74,14,14,0,0,0,5.61-2.59,9.2,9.2,0,0,0,3-4.67c.59-1.94.88-5.4.88-10.35V44.69h9.71V95.8q0,14.61-6.58,20.38T127.26,122H116.74q-16.67,0-23.25-5.77T86.91,95.8Z"/><path d="M174.92,96.16h9.71V97.6q0,6.81,1.17,10.05a7.76,7.76,0,0,0,3.86,4.56,20.22,20.22,0,0,0,6.49,1.46q4.38.43,18.07.44a60.53,60.53,0,0,0,11.52-.85,12.3,12.3,0,0,0,6.08-2.74,6.58,6.58,0,0,0,1.64-3.49,33.41,33.41,0,0,0,.52-6.66q0-8.52-2-10.69t-7.74-2.59l-26.85-1.85q-12-.81-16.66-5.28t-4.62-15a31.27,31.27,0,0,1,1.52-10.72,15.14,15.14,0,0,1,4.91-6.71,16.6,16.6,0,0,1,7.37-2.9q4.74-.84,16.72-.84h3.1q13.39,0,18.86,1.12a22.6,22.6,0,0,1,9.15,3.9A10.69,10.69,0,0,1,241.5,54a25.89,25.89,0,0,1,1.2,8.49q0,1.48,0,2.28t-.09,1.41h-9.71v-1.9a28.36,28.36,0,0,0-.55-6.43,6.29,6.29,0,0,0-1.79-3.31q-1.82-1.59-6.46-2.23a157.93,157.93,0,0,0-17.63-.64q-13.45,0-16.9,2.67T186.09,65c0,4.38.75,7.39,2.25,9s4.4,2.64,8.69,3l27.36,2q10.77.83,15.09,5.2t4.33,14.64a42.57,42.57,0,0,1-1.11,11.25,14.1,14.1,0,0,1-3.69,6.28,17.4,17.4,0,0,1-8.51,4.39q-5.34,1.24-19.5,1.25h-4.33q-12,0-17-1.07a19.83,19.83,0,0,1-8.34-3.75,14.27,14.27,0,0,1-4.82-6.66,31.28,31.28,0,0,1-1.55-10.66Z"/><path class="cls-2" d="M256.72,43.43V34.21h74.15v9.22H299.21V121h-11V43.43Z"/><path class="cls-2" d="M346.67,121V44.69h9.71V121Z"/><path class="cls-2" d="M380.67,69.91q0-14.65,6.41-20.4t22.6-5.74h10.17q16.08,0,22.57,4.94t6.5,16.79v3.34H439V66.73q0-8.66-4-11.84t-15.79-3.18h-6.73a55,55,0,0,0-11.49.85,14.33,14.33,0,0,0-6,2.84,10.24,10.24,0,0,0-3.36,5.1q-1,3.16-1,11.51V93.75q0,8.31,1,11.46a10.24,10.24,0,0,0,3.36,5.1,14.3,14.3,0,0,0,5.82,2.85q3.42.84,11.66.84h6.73q12,0,16-3.33t4-12.76c0-1,0-1.7,0-2.21s-.05-1-.09-1.43h9.89v5q0,12.72-6.29,17.69t-22.78,5H409.68q-16.2,0-22.6-5.74T380.67,95.8Z"/><path class="cls-3" d="M488.81,122.19V35.38h11v86.81Z"/><path class="cls-3" d="M513.34,122.19l36.58-86.81h18l36.77,86.81h-11.3L584,100H533.89l-9.24,22.21Zm24.21-30.78h42.89L560.69,44.59h-3.52Z"/><path class="cls-4" d="M488.81,122.19V35.38h11v86.81Z"/><path class="cls-4" d="M513.34,122.19l36.58-86.81h18l36.77,86.81h-11.3L584,100H533.89l-9.24,22.21Zm24.21-30.78h42.89L560.69,44.59h-3.52Z"/><path class="cls-5" d="M488.81,122.19V35.38h11v86.81Z"/><path class="cls-5" d="M513.34,122.19l36.58-86.81h18l36.77,86.81h-11.3L584,100H533.89l-9.24,22.21Zm24.21-30.78h42.89L560.69,44.59h-3.52Z"/><path d="M10.46,185.46a6.58,6.58,0,0,1-3.37-.89A6.38,6.38,0,0,1,4.7,182.1a7.09,7.09,0,0,1-.87-3.49,6.9,6.9,0,0,1,.87-3.44,6.39,6.39,0,0,1,2.39-2.45,6.48,6.48,0,0,1,3.37-.89,6.42,6.42,0,0,1,4,1.3,5.1,5.1,0,0,1,2.08,3.29h-2a3.57,3.57,0,0,0-1.47-2,4.35,4.35,0,0,0-2.57-.8,4.56,4.56,0,0,0-2.41.67,4.68,4.68,0,0,0-1.72,1.81,5.26,5.26,0,0,0-.62,2.55,5.11,5.11,0,0,0,1.37,3.63,4.43,4.43,0,0,0,3.38,1.47,4.24,4.24,0,0,0,2.6-.84,3.72,3.72,0,0,0,1.45-2.16h2a5.57,5.57,0,0,1-2.11,3.43A6.3,6.3,0,0,1,10.46,185.46Z"/><path d="M18.73,172h7.63v1.75H20.57v3.64h5.16v1.74H20.57v4.4h5.79v1.74H18.73Z"/><path d="M28.66,172h1.66l6.85,9.82V172H39v13.27H37.38l-6.88-9.8v9.8H28.66Z"/><path d="M51.11,172v1.75h-4.2v11.52H45.07V173.76H40.86V172Z"/><path d="M62.78,185.28H60.59l-3.53-5.51H54.8v5.51H53V172h4.9a3.94,3.94,0,0,1,2.83,1.11,3.63,3.63,0,0,1,1.16,2.74,4,4,0,0,1-.75,2.44,3.68,3.68,0,0,1-2.05,1.34Zm-8-11.52V178h3a2.12,2.12,0,0,0,1.57-.62,2.07,2.07,0,0,0,.62-1.55,2,2,0,0,0-.62-1.5,2.15,2.15,0,0,0-1.57-.6Z"/><path d="M70.11,171.83a6.72,6.72,0,0,1,2.64.52,6.62,6.62,0,0,1,2.14,1.42,7,7,0,0,1,1.41,2.16,7.06,7.06,0,0,1,.51,2.68,7.16,7.16,0,0,1-.51,2.7,6.88,6.88,0,0,1-1.41,2.19,6.67,6.67,0,0,1-4.78,2,6.73,6.73,0,0,1-2.65-.52,6.36,6.36,0,0,1-3.54-3.63,7,7,0,0,1-.52-2.7,6.9,6.9,0,0,1,.87-3.44,6.47,6.47,0,0,1,2.42-2.45A6.66,6.66,0,0,1,70.11,171.83Zm2.45,2.42a4.79,4.79,0,0,0-6.65,1.81,5.27,5.27,0,0,0-.63,2.55,5.08,5.08,0,0,0,1.39,3.63,4.75,4.75,0,0,0,6.87,0,5.09,5.09,0,0,0,1.4-3.63,5.16,5.16,0,0,0-.64-2.55A4.66,4.66,0,0,0,72.56,174.25Z"/><path d="M87.61,172a6.83,6.83,0,0,1,2.59.5,6.27,6.27,0,0,1,2.09,1.37A6.12,6.12,0,0,1,93.68,176a6.72,6.72,0,0,1,.51,2.62,7,7,0,0,1-.51,2.66,6.53,6.53,0,0,1-1.38,2.13,6.36,6.36,0,0,1-2.1,1.39,6.65,6.65,0,0,1-2.59.51H83.37V172Zm.11,11.53A4.3,4.3,0,0,0,91,182.13a5,5,0,0,0,1.3-3.54,4.82,4.82,0,0,0-1.3-3.47,4.38,4.38,0,0,0-3.29-1.36H85.21v9.78Z"/><path d="M96.37,172H104v1.75H98.21v3.64h5.16v1.74H98.21v4.4H104v1.74H96.37Z"/><path d="M119.71,185.28l-1.15-2.93h-6l-1.16,2.93h-1.92L114.81,172h1.57l5.32,13.27Zm-6.4-4.68h4.57l-2.27-5.82Z"/><path d="M128.63,185.46a6.61,6.61,0,0,1-3.37-.89,6.45,6.45,0,0,1-2.39-2.47,7.09,7.09,0,0,1-.87-3.49,6.9,6.9,0,0,1,.87-3.44,6.67,6.67,0,0,1,9.74-2,5.1,5.1,0,0,1,2.08,3.29h-2a3.57,3.57,0,0,0-1.47-2,4.33,4.33,0,0,0-2.57-.8,4.58,4.58,0,0,0-2.41.67,4.68,4.68,0,0,0-1.72,1.81,5.37,5.37,0,0,0-.62,2.55,5.11,5.11,0,0,0,1.37,3.63,4.43,4.43,0,0,0,3.38,1.47,4.24,4.24,0,0,0,2.6-.84,3.73,3.73,0,0,0,1.46-2.16h2a5.52,5.52,0,0,1-2.11,3.43A6.3,6.3,0,0,1,128.63,185.46Z"/><path d="M143.05,171.83a6.72,6.72,0,0,1,2.64.52,6.62,6.62,0,0,1,2.14,1.42,7,7,0,0,1,1.41,2.16,7.06,7.06,0,0,1,.51,2.68,7.16,7.16,0,0,1-.51,2.7,6.88,6.88,0,0,1-1.41,2.19,6.67,6.67,0,0,1-4.78,2,6.73,6.73,0,0,1-2.65-.52,6.36,6.36,0,0,1-3.54-3.63,7,7,0,0,1-.52-2.7,6.9,6.9,0,0,1,.87-3.44,6.47,6.47,0,0,1,2.42-2.45A6.64,6.64,0,0,1,143.05,171.83Zm2.45,2.42a4.72,4.72,0,0,0-2.45-.67,4.78,4.78,0,0,0-4.2,2.48,5.27,5.27,0,0,0-.63,2.55,5.08,5.08,0,0,0,1.39,3.63,4.75,4.75,0,0,0,6.87,0,5.09,5.09,0,0,0,1.4-3.63,5.16,5.16,0,0,0-.64-2.55A4.66,4.66,0,0,0,145.5,174.25Z"/><path d="M157,172a4,4,0,0,1,2.92,1.13,3.72,3.72,0,0,1,1.16,2.81,3.78,3.78,0,0,1-1.16,2.83,4,4,0,0,1-2.92,1.13h-3.25v5.37H152V172Zm0,6.16a2.2,2.2,0,0,0,1.61-.64,2.14,2.14,0,0,0,.65-1.58,2.1,2.1,0,0,0-.65-1.56,2.23,2.23,0,0,0-1.61-.63h-3.25v4.41Z"/><path d="M163.1,172H165v13.27H163.1Z"/><path d="M173.85,171.83a6.72,6.72,0,0,1,2.64.52,6.47,6.47,0,0,1,2.13,1.42,6.82,6.82,0,0,1,1.42,2.16,7.06,7.06,0,0,1,.51,2.68,7.16,7.16,0,0,1-.51,2.7,6.73,6.73,0,0,1-1.42,2.19,6.51,6.51,0,0,1-2.13,1.44,7,7,0,0,1-5.29,0,6.56,6.56,0,0,1-2.14-1.44,6.69,6.69,0,0,1-1.4-2.19,7,7,0,0,1-.52-2.7,6.9,6.9,0,0,1,.87-3.44,6.47,6.47,0,0,1,2.42-2.45A6.61,6.61,0,0,1,173.85,171.83Zm2.45,2.42a4.83,4.83,0,0,0-4.91,0,4.66,4.66,0,0,0-1.74,1.81,5.27,5.27,0,0,0-.63,2.55,5.08,5.08,0,0,0,1.39,3.63,4.75,4.75,0,0,0,6.87,0,5.09,5.09,0,0,0,1.4-3.63,5.27,5.27,0,0,0-.64-2.55A4.66,4.66,0,0,0,176.3,174.25Z"/><path d="M191.35,172a6.86,6.86,0,0,1,2.59.5,6.27,6.27,0,0,1,2.09,1.37,6.12,6.12,0,0,1,1.39,2.09,6.72,6.72,0,0,1,.51,2.62,7,7,0,0,1-.51,2.66,6.19,6.19,0,0,1-3.48,3.52,6.65,6.65,0,0,1-2.59.51H187.1V172Zm.11,11.53a4.3,4.3,0,0,0,3.29-1.41,5,5,0,0,0,1.3-3.54,4.82,4.82,0,0,0-1.3-3.47,4.38,4.38,0,0,0-3.29-1.36h-2.52v9.78Z"/><path d="M200.11,172h7.62v1.75H202v3.64h5.16v1.74H202v4.4h5.78v1.74h-7.62Z"/><path d="M214.4,172h1.84v13.27H214.4Z"/><path d="M218.92,172h1.66l6.85,9.82V172h1.82v13.27h-1.62l-6.87-9.8v9.8h-1.84Z"/><path d="M232,172h7.62v1.75H233.8v3.85H239v1.74H233.8v5.93H232Z"/><path d="M247.43,171.83a6.73,6.73,0,0,1,2.65.52,6.47,6.47,0,0,1,2.13,1.42,6.62,6.62,0,0,1,1.41,2.16,6.88,6.88,0,0,1,.52,2.68,7,7,0,0,1-.52,2.7,6.44,6.44,0,0,1-3.54,3.63,7,7,0,0,1-5.3,0,6.51,6.51,0,0,1-2.13-1.44,6.69,6.69,0,0,1-1.4-2.19,7,7,0,0,1-.52-2.7,6.9,6.9,0,0,1,.87-3.44,6.4,6.4,0,0,1,2.42-2.45A6.6,6.6,0,0,1,247.43,171.83Zm2.46,2.42a4.83,4.83,0,0,0-4.91,0,4.66,4.66,0,0,0-1.74,1.81,5.27,5.27,0,0,0-.63,2.55,5.08,5.08,0,0,0,1.39,3.63,4.75,4.75,0,0,0,6.87,0,5.08,5.08,0,0,0,1.39-3.63,5.27,5.27,0,0,0-.63-2.55A4.66,4.66,0,0,0,249.89,174.25Z"/><path d="M266.15,185.28H264l-3.53-5.51h-2.25v5.51h-1.85V172h4.9a3.94,3.94,0,0,1,2.83,1.11,3.64,3.64,0,0,1,1.17,2.74,4,4,0,0,1-.76,2.44,3.68,3.68,0,0,1-2.05,1.34Zm-8-11.52,0,4.27h3a2.12,2.12,0,0,0,1.57-.62,2.07,2.07,0,0,0,.62-1.55,2,2,0,0,0-.62-1.5,2.15,2.15,0,0,0-1.57-.6Z"/><path d="M267.83,185.28V172H270l4.73,10.6L279.6,172h1.86v13.27h-1.84v-9.64l-4.32,9.64H274l-4.28-9.64v9.64Z"/><path d="M293.2,185.28l-1.15-2.93H286.1l-1.16,2.93H283L288.3,172h1.57l5.32,13.27Zm-6.4-4.68h4.57l-2.28-5.82Z"/><path d="M302.12,185.46a6.58,6.58,0,0,1-3.37-.89,6.45,6.45,0,0,1-2.39-2.47,7.09,7.09,0,0,1-.87-3.49,6.9,6.9,0,0,1,.87-3.44,6.67,6.67,0,0,1,9.74-2,5.1,5.1,0,0,1,2.08,3.29h-2a3.57,3.57,0,0,0-1.47-2,4.35,4.35,0,0,0-2.57-.8,4.58,4.58,0,0,0-2.41.67,4.68,4.68,0,0,0-1.72,1.81,5.37,5.37,0,0,0-.62,2.55,5.11,5.11,0,0,0,1.37,3.63,4.43,4.43,0,0,0,3.38,1.47,4.24,4.24,0,0,0,2.6-.84,3.72,3.72,0,0,0,1.45-2.16h2.05a5.52,5.52,0,0,1-2.11,3.43A6.3,6.3,0,0,1,302.12,185.46Z"/><path d="M310.39,172h1.84v13.27h-1.84Z"/><path d="M321.13,171.83a6.73,6.73,0,0,1,2.65.52,6.47,6.47,0,0,1,2.13,1.42,6.62,6.62,0,0,1,1.41,2.16,6.88,6.88,0,0,1,.52,2.68,7,7,0,0,1-.52,2.7,6.44,6.44,0,0,1-3.54,3.63,7,7,0,0,1-5.3,0,6.51,6.51,0,0,1-2.13-1.44,6.69,6.69,0,0,1-1.4-2.19,7,7,0,0,1-.52-2.7,6.9,6.9,0,0,1,.87-3.44,6.4,6.4,0,0,1,2.42-2.45A6.6,6.6,0,0,1,321.13,171.83Zm2.46,2.42a4.83,4.83,0,0,0-4.91,0,4.66,4.66,0,0,0-1.74,1.81,5.27,5.27,0,0,0-.63,2.55,5.08,5.08,0,0,0,1.39,3.63,4.75,4.75,0,0,0,6.87,0,5.08,5.08,0,0,0,1.39-3.63,5.27,5.27,0,0,0-.63-2.55A4.66,4.66,0,0,0,323.59,174.25Zm.26-6.06-2.05,2.75h-1.63l1.56-2.75Z"/><path d="M330,172h1.65l6.86,9.82V172h1.82v13.27h-1.62l-6.87-9.8v9.8H330Z"/><path d="M353.57,185.46a6.58,6.58,0,0,1-3.37-.89,6.38,6.38,0,0,1-2.39-2.47,7.09,7.09,0,0,1-.87-3.49,6.9,6.9,0,0,1,.87-3.44,6.39,6.39,0,0,1,2.39-2.45,6.78,6.78,0,0,1,7.35.41,5.1,5.1,0,0,1,2.08,3.29h-2a3.57,3.57,0,0,0-1.47-2,4.35,4.35,0,0,0-2.57-.8,4.56,4.56,0,0,0-2.41.67,4.68,4.68,0,0,0-1.72,1.81,5.26,5.26,0,0,0-.62,2.55,5.11,5.11,0,0,0,1.37,3.63,4.43,4.43,0,0,0,3.38,1.47,4.24,4.24,0,0,0,2.6-.84,3.72,3.72,0,0,0,1.45-2.16h2.05a5.52,5.52,0,0,1-2.11,3.43A6.3,6.3,0,0,1,353.57,185.46Z"/><path d="M368,171.83a6.72,6.72,0,0,1,2.64.52,6.47,6.47,0,0,1,2.13,1.42,6.62,6.62,0,0,1,1.41,2.16,6.88,6.88,0,0,1,.52,2.68,7,7,0,0,1-.52,2.7,6.44,6.44,0,0,1-3.54,3.63,7,7,0,0,1-5.3,0,6.51,6.51,0,0,1-2.13-1.44,6.69,6.69,0,0,1-1.4-2.19,7,7,0,0,1-.52-2.7,6.9,6.9,0,0,1,.87-3.44,6.47,6.47,0,0,1,2.42-2.45A6.61,6.61,0,0,1,368,171.83Zm2.45,2.42a4.83,4.83,0,0,0-4.91,0,4.66,4.66,0,0,0-1.74,1.81,5.27,5.27,0,0,0-.63,2.55,5.08,5.08,0,0,0,1.39,3.63,4.75,4.75,0,0,0,6.87,0,5.09,5.09,0,0,0,1.4-3.63,5.27,5.27,0,0,0-.64-2.55A4.66,4.66,0,0,0,370.44,174.25Z"/><path d="M376.89,172h1.65l6.86,9.82V172h1.82v13.27H385.6l-6.87-9.8v9.8h-1.84Z"/><path d="M393.22,172h2L399,182.42,402.86,172h1.92l-5,13.27h-1.53Z"/><path d="M411.78,171.83a6.72,6.72,0,0,1,2.64.52,6.51,6.51,0,0,1,2.14,1.42,6.62,6.62,0,0,1,1.41,2.16,6.88,6.88,0,0,1,.52,2.68,7,7,0,0,1-.52,2.7,6.42,6.42,0,0,1-3.55,3.63,7,7,0,0,1-5.29,0A6.51,6.51,0,0,1,407,183.5a6.88,6.88,0,0,1-1.41-2.19,7.16,7.16,0,0,1-.51-2.7,6.9,6.9,0,0,1,.87-3.44,6.4,6.4,0,0,1,2.42-2.45A6.6,6.6,0,0,1,411.78,171.83Zm2.46,2.42a4.83,4.83,0,0,0-4.91,0,4.66,4.66,0,0,0-1.74,1.81,5.27,5.27,0,0,0-.64,2.55,5.09,5.09,0,0,0,1.4,3.63,4.75,4.75,0,0,0,6.87,0,5.08,5.08,0,0,0,1.39-3.63,5.27,5.27,0,0,0-.63-2.55A4.66,4.66,0,0,0,414.24,174.25Z"/><path d="M426.83,185.46a6.62,6.62,0,0,1-3.38-.89,6.45,6.45,0,0,1-2.39-2.47,7.09,7.09,0,0,1-.87-3.49,6.9,6.9,0,0,1,.87-3.44,6.48,6.48,0,0,1,5.77-3.34,6.39,6.39,0,0,1,4,1.3,5.11,5.11,0,0,1,2.09,3.29h-2a3.57,3.57,0,0,0-1.47-2,4.32,4.32,0,0,0-2.56-.8,4.66,4.66,0,0,0-4.13,2.48,5.27,5.27,0,0,0-.63,2.55,5.15,5.15,0,0,0,1.37,3.63,4.44,4.44,0,0,0,3.39,1.47,4.26,4.26,0,0,0,2.6-.84,3.76,3.76,0,0,0,1.45-2.16h2a5.55,5.55,0,0,1-2.1,3.43A6.3,6.3,0,0,1,426.83,185.46Z"/><path d="M444,185.28l-1.16-2.93h-6l-1.15,2.93h-1.93L439.1,172h1.58L446,185.28Zm-6.4-4.68h4.57l-2.28-5.82Z"/><path d="M452.93,185.46a6.62,6.62,0,0,1-3.38-.89,6.45,6.45,0,0,1-2.39-2.47,7.09,7.09,0,0,1-.87-3.49,6.9,6.9,0,0,1,.87-3.44,6.67,6.67,0,0,1,9.74-2,5.11,5.11,0,0,1,2.09,3.29h-2a3.57,3.57,0,0,0-1.47-2,4.32,4.32,0,0,0-2.56-.8,4.59,4.59,0,0,0-2.42.67,4.68,4.68,0,0,0-1.72,1.81,5.37,5.37,0,0,0-.62,2.55,5.15,5.15,0,0,0,1.37,3.63,4.44,4.44,0,0,0,3.39,1.47,4.26,4.26,0,0,0,2.6-.84,3.76,3.76,0,0,0,1.45-2.16h2a5.55,5.55,0,0,1-2.1,3.43A6.3,6.3,0,0,1,452.93,185.46Z"/><path d="M461.2,172H463v13.27H461.2Z"/><path d="M471.94,171.83a6.72,6.72,0,0,1,2.64.52,6.62,6.62,0,0,1,2.14,1.42,7,7,0,0,1,1.41,2.16,7.07,7.07,0,0,1,.52,2.68,7.17,7.17,0,0,1-.52,2.7,6.88,6.88,0,0,1-1.41,2.19,6.67,6.67,0,0,1-4.78,2,6.73,6.73,0,0,1-2.65-.52,6.44,6.44,0,0,1-3.54-3.63,7,7,0,0,1-.52-2.7,6.8,6.8,0,0,1,.88-3.44,6.37,6.37,0,0,1,2.41-2.45A6.66,6.66,0,0,1,471.94,171.83Zm2.45,2.42a4.79,4.79,0,0,0-6.65,1.81,5.27,5.27,0,0,0-.63,2.55,5.08,5.08,0,0,0,1.39,3.63,4.76,4.76,0,0,0,6.88,0,5.42,5.42,0,0,0,.75-6.18A4.66,4.66,0,0,0,474.39,174.25Zm.26-6.06-2,2.75H471l1.55-2.75Z"/><path d="M480.84,172h1.66l6.85,9.82V172h1.82v13.27h-1.62l-6.87-9.8v9.8h-1.84Z"/><path d="M503.33,172a4,4,0,0,1,2.91,1.13,3.73,3.73,0,0,1,1.17,2.81,3.79,3.79,0,0,1-1.17,2.83,4,4,0,0,1-2.91,1.13h-3.26v5.37h-1.84V172Zm0,6.16a2.22,2.22,0,0,0,1.61-.64,2.14,2.14,0,0,0,.65-1.58,2.1,2.1,0,0,0-.65-1.56,2.25,2.25,0,0,0-1.61-.63h-3.26v4.41Z"/><path d="M519.21,185.28H517l-3.52-5.51h-2.26v5.51h-1.84V172h4.89a4,4,0,0,1,2.84,1.11,3.66,3.66,0,0,1,1.16,2.74,3.9,3.9,0,0,1-.76,2.44,3.65,3.65,0,0,1-2,1.34Zm-8-11.52,0,4.27h3a2.14,2.14,0,0,0,1.57-.62,2.11,2.11,0,0,0,.62-1.55,2,2,0,0,0-.62-1.5,2.17,2.17,0,0,0-1.57-.6Z"/><path d="M526.53,171.83a6.72,6.72,0,0,1,2.64.52,6.51,6.51,0,0,1,2.14,1.42,6.62,6.62,0,0,1,1.41,2.16,6.88,6.88,0,0,1,.52,2.68,7,7,0,0,1-.52,2.7,6.42,6.42,0,0,1-3.55,3.63,7,7,0,0,1-5.29,0,6.51,6.51,0,0,1-2.13-1.44,6.88,6.88,0,0,1-1.41-2.19,7.16,7.16,0,0,1-.51-2.7,6.9,6.9,0,0,1,.87-3.44,6.4,6.4,0,0,1,2.42-2.45A6.6,6.6,0,0,1,526.53,171.83Zm2.46,2.42a4.83,4.83,0,0,0-4.91,0,4.66,4.66,0,0,0-1.74,1.81,5.27,5.27,0,0,0-.64,2.55,5.09,5.09,0,0,0,1.4,3.63,4.75,4.75,0,0,0,6.87,0,5.08,5.08,0,0,0,1.39-3.63,5.27,5.27,0,0,0-.63-2.55A4.66,4.66,0,0,0,529,174.25Z"/><path d="M535.43,185.28V172h4.72a4,4,0,0,1,2.74,1,3.06,3.06,0,0,1,1.13,2.38,3,3,0,0,1-.61,1.84,2.59,2.59,0,0,1-1.53,1,3,3,0,0,1,2,1.1,3.3,3.3,0,0,1,.81,2.22,3.44,3.44,0,0,1-1.16,2.62,4,4,0,0,1-2.8,1.07Zm1.83-7.62h2.84a2,2,0,0,0,1.47-.58,1.88,1.88,0,0,0,.61-1.42,1.75,1.75,0,0,0-.61-1.35,2.08,2.08,0,0,0-1.47-.55h-2.84Zm0,5.88h3.35a2.2,2.2,0,1,0,0-4.39h-3.37Z"/><path d="M555.52,185.28l-1.16-2.93h-6l-1.15,2.93h-1.93L550.61,172h1.58l5.32,13.27Zm-6.4-4.68h4.57l-2.28-5.82Z"/><path d="M566.48,172v1.75h-4.2v11.52h-1.84V173.76h-4.21V172Z"/><path d="M573.26,171.83a6.73,6.73,0,0,1,2.65.52,6.4,6.4,0,0,1,3.54,3.58,6.88,6.88,0,0,1,.52,2.68,7,7,0,0,1-.52,2.7A6.55,6.55,0,0,1,578,183.5a6.62,6.62,0,0,1-2.13,1.44,7,7,0,0,1-5.3,0,6.51,6.51,0,0,1-2.13-1.44,6.88,6.88,0,0,1-1.41-2.19,7.16,7.16,0,0,1-.51-2.7,6.9,6.9,0,0,1,.87-3.44,6.4,6.4,0,0,1,2.42-2.45A6.6,6.6,0,0,1,573.26,171.83Zm2.46,2.42a4.83,4.83,0,0,0-4.91,0,4.66,4.66,0,0,0-1.74,1.81,5.27,5.27,0,0,0-.64,2.55,5.09,5.09,0,0,0,1.4,3.63,4.75,4.75,0,0,0,6.87,0,5.08,5.08,0,0,0,1.39-3.63,5.27,5.27,0,0,0-.63-2.55A4.66,4.66,0,0,0,575.72,174.25Z"/><path d="M592,185.28h-2.19l-3.53-5.51H584v5.51h-1.84V172h4.9a3.94,3.94,0,0,1,2.83,1.11,3.63,3.63,0,0,1,1.16,2.74,4,4,0,0,1-.75,2.44,3.68,3.68,0,0,1-2,1.34Zm-8-11.52V178h3a2.12,2.12,0,0,0,1.57-.62,2.07,2.07,0,0,0,.62-1.55,2,2,0,0,0-.62-1.5,2.15,2.15,0,0,0-1.57-.6Z"/><path d="M593.66,172h1.84v13.27h-1.84Z"/><path d="M607.25,185.28l-1.16-2.93h-6L599,185.28h-1.92L602.34,172h1.58l5.32,13.27Zm-6.41-4.68h4.57l-2.27-5.82Z"/></g></g></svg>